HIERARCHY
ROOT Hips
{
	OFFSET 0.000000 0.000000 0.000000 
	CHANNELS 6 Xposition Yposition Zposition Yrotation Zrotation Xrotation 
	JOINT Lumbar
	{
		OFFSET 0.000000 0.000000 0.000000 
		CHANNELS 3 Zrotation Xrotation Yrotation
		JOINT Neck
		{
			OFFSET 0.000000 0.445665 0.000000 
			CHANNELS 3 Zrotation Xrotation Yrotation
			End Site
			{
				OFFSET 0.000000 0.227535 0.000000 
			}
		}
		JOINT RightShoulder
		{
			OFFSET 0.019635 0.377685 0.194865 
			CHANNELS 3 Zrotation Xrotation Yrotation
			JOINT RightElbow
			{
				OFFSET 0.000000 -0.243375 0.000000 
				CHANNELS 2 Zrotation Yrotation
				JOINT RightWrist
				{
					OFFSET 0.000000 -0.264825 0.000000 
					CHANNELS 2 Zrotation Xrotation
					End Site
					{
						OFFSET 0.006600 -0.176220 0.000990 
					}
				}
			}
		}
		JOINT LeftShoulder
		{
			OFFSET 0.019635 0.377685 -0.194865 
			CHANNELS 3 Zrotation Xrotation Yrotation
			JOINT LeftElbow
			{
				OFFSET 0.000000 -0.243375 0.000000 
				CHANNELS 2 Zrotation Yrotation
				JOINT LeftWrist
				{
					OFFSET 0.000000 -0.264825 0.000000 
					CHANNELS 2 Zrotation Xrotation
					End Site
					{
						OFFSET 0.006600 -0.176220 -0.000990 
					}
				}
			}
		}
	}
	JOINT RightHip
	{
		OFFSET 0.052140 -0.069960 0.075570 
		CHANNELS 3 Zrotation Xrotation Yrotation
		JOINT RightKnee
		{
			OFFSET 0.000000 -0.402270 0.000000 
			CHANNELS 1 Zrotation
			JOINT RightAnkle
			{
				OFFSET 0.000000 -0.404085 0.000000 
				CHANNELS 3 Zrotation Xrotation Yrotation
				End Site
				{
					OFFSET 0.204105 -0.089430 0.008415 
				}
			}
		}
	}
	JOINT LeftHip
	{
		OFFSET 0.052140 -0.069960 -0.075570 
		CHANNELS 3 Zrotation Xrotation Yrotation
		JOINT LeftKnee
		{
			OFFSET 0.000000 -0.402270 0.000000 
			CHANNELS 1 Zrotation
			JOINT LeftAnkle
			{
				OFFSET 0.000000 -0.404085 0.000000 
				CHANNELS 3 Zrotation Xrotation Yrotation
				End Site
				{
					OFFSET 0.204105 -0.089430 -0.008415 
				}
			}
		}
	}
}
MOTION
Frames: 22
Frame Time: 0.02
-3.814 -0.74204 0.60255 969.57618 -28.64464 3.63727 37.20907 6.10746 6.27483 -9.81612 12.40667 -2.11994 64.53937 -9.90218 53.99341 107.52945 81.71058 -10.26318 -1.69323 -40.87504 99.75387 82.46137 29.40597 -91.45278 5.68509 -3.40952 20.11475 11.78938 -37.69017 -29.56756 -5.81199 -1.84057 -3.09361 -0.40259 18.02471 -36.94944 0.46889 -11.80887 27.80151 17.08515
-3.8218 -0.74374 0.61319 971.8253 -28.60677 3.49317 37.18084 5.85453 5.69164 -9.67113 13.67165 -2.11994 64.6611 -10.51276 53.48935 107.72708 81.60969 -11.33183 -1.90516 -42.29529 102.04509 83.31376 28.44793 -90.97338 5.15825 -3.1588 23.74339 11.96968 -38.77384 -29.4051 -6.1163 -1.43614 -2.91329 -0.27136 19.32034 -37.1848 0.45911 -10.88077 25.83654 16.07556
-3.82933 -0.74603 0.62462 973.99071 -28.53076 3.4808 37.13576 5.58051 5.40644 -9.51596 14.87304 -2.11994 64.23052 -10.96948 52.8727 108.07835 81.5678 -12.29473 -2.09761 -40.8133 103.96051 81.38921 27.59455 -90.22423 4.54352 -2.64134 26.96799 12.19437 -39.4057 -28.33619 -6.09649 -1.24096 -2.82001 -0.20557 20.44277 -37.05071 0.44752 -9.7959 23.70052 14.90026
-3.83696 -0.74811 0.6358 976.181 -28.46597 3.41397 37.09728 5.32017 5.00127 -9.35997 16.09178 -2.11994 64.01126 -11.47923 52.32119 108.37142 81.50037 -13.27461 -2.29794 -40.8326 105.9945 80.8933 26.74788 -89.63073 3.95924 -2.26627 30.32923 12.39619 -40.22888 -27.70656 -6.08352 -0.77044 -2.60648 -0.12609 21.63417 -37.08959 0.4368 -8.80646 21.66495 13.81235
-3.84473 -0.74992 0.6465 978.43331 -28.43097 3.32443 37.06452 5.0381 4.5344 -9.22418 17.36661 -2.11994 63.97693 -12.06431 51.70755 108.61014 81.42451 -14.39751 -2.50729 -40.28837 108.29374 79.88542 25.65256 -88.90585 3.39769 -1.81323 33.91444 12.60795 -41.08888 -26.96494 -6.686 -1.03506 -2.72774 0.03004 22.87149 -37.09984 0.42572 -7.69917 19.51799 12.6667
-3.85214 -0.75244 0.65842 980.53216 -28.32452 3.31279 37.01721 4.79802 4.26426 -9.04646 18.50588 -2.11994 63.42447 -12.45584 51.19966 108.99819 81.38115 -15.19292 -2.68993 -40.07291 109.9187 79.14536 25.11531 -88.39072 2.78277 -1.45523 36.92242 12.80963 -41.77462 -26.24391 -5.95915 0.14768 -2.18575 0.00798 23.97013 -37.08417 0.41452 -6.8097 17.56844 11.60539
-3.85854 -0.75684 0.67331 982.252 -28.01547 3.49169 36.91152 4.67873 4.47846 -8.73703 19.29554 -2.11994 61.51824 -12.33362 50.98745 109.79024 81.41625 -15.10926 -2.82172 -42.44869 109.97062 80.65811 25.9904 -88.47774 1.93805 -1.41999 38.49561 12.97835 -42.07387 -25.75293 -1.16199 5.67993 0.34767 -0.49335 24.72822 -37.09446 0.40629 -6.51758 16.20539 10.80661
-3.86461 -0.76195 0.68943 983.8156 -27.6378 3.74284 36.79578 4.60301 4.87676 -8.38924 19.94784 -2.11994 59.11934 -12.02504 50.88949 110.72275 81.48183 -14.69845 -2.92395 -45.07841 109.32232 82.383 27.4391 -88.79001 1.06125 -1.48862 39.48799 13.1346 -42.2184 -25.32199 4.88637 12.62094 3.52711 -1.17086 25.35164 -37.09118 0.39523 -6.46019 15.04929 10.10096
-3.87089 -0.76672 0.70511 985.43369 -27.30044 3.95632 36.69842 4.50835 5.18215 -8.07142 20.65679 -2.11994 56.97818 -11.81111 50.75589 111.57323 81.53197 -14.43564 -3.02669 -46.90929 108.85386 83.42307 28.70085 -89.02756 0.27091 -1.51152 40.70356 13.29307 -42.44826 -24.89414 10.05153 18.7182 6.32031 -1.76903 26.03655 -37.09059 0.38669 -6.32421 13.80084 9.36103
-3.87692 -0.77157 0.7203 987.11688 -26.92339 4.19589 36.5409 4.40973 5.53979 -7.70083 21.39014 -2.11994 54.66662 -11.54676 50.55236 112.50666 81.59114 -14.1707 -3.18126 -51.43797 108.93214 86.77421 29.67598 -89.14526 -0.81812 -1.51999 42.07641 13.46757 -42.60222 -24.30614 16.53622 25.66334 9.49973 -2.37298 26.71592 -37.09172 0.38251 -6.06188 12.53858 8.58252
-3.8834 -0.7764 0.73681 988.63068 -26.61308 4.39519 36.50817 4.32939 5.82495 -7.43053 22.0382 -2.11994 52.61098 -11.34908 50.51964 113.29752 81.63758 -13.83576 -3.22378 -50.55617 107.74131 85.49614 31.35639 -89.56193 -1.30149 -1.58547 42.99028 13.60517 -42.87893 -24.07829 20.58916 31.18484 12.03153 -2.99748 27.37501 -37.09079 0.35649 -6.12319 11.35699 7.9071
-3.89128 -0.78124 0.75653 989.69606 -26.50472 4.47675 36.80736 4.29419 5.89357 -7.45191 22.50639 -2.11994 51.29081 -11.34764 50.96082 113.66985 81.64484 -13.37165 -2.94088 -33.70314 102.94501 70.52516 35.07087 -90.81397 -0.01737 -1.7943 42.76764 13.6435 -43.57472 -24.83035 17.41759 32.38645 12.59766 -3.70573 28.02901 -37.09027 0.37301 -7.00039 10.34544 7.50875
-3.89963 -0.78601 0.77755 990.6005 -26.46571 4.5125 37.23465 4.27498 5.87639 -7.57433 22.88939 -2.11994 50.26477 -11.42656 51.56484 113.89126 81.63739 -12.85246 -2.55062 -11.57612 96.9451 51.04777 39.43133 -92.34722 1.86167 -2.05659 42.10722 13.64496 -44.39399 -25.94749 11.7912 32.11562 12.49366 -4.41374 28.66448 -37.08949 0.34764 -8.20016 9.40953 7.20937
-3.90773 -0.79069 0.79805 991.59118 -26.39486 4.56133 37.61422 4.2451 5.87776 -7.64736 23.29756 -2.11994 49.16731 -11.49154 52.07512 114.17485 81.63399 -12.36865 -2.22491 7.46713 91.68069 34.22794 43.34817 -93.71184 3.41146 -2.28768 41.65655 13.66336 -45.13119 -26.90178 7.42191 32.5493 12.70979 -5.0774 29.29783 -37.08888 0.27565 -9.26603 8.44085 6.85504
-3.91597 -0.79592 0.81833 992.52028 -26.32387 4.64568 37.95215 4.23116 5.97062 -7.73478 23.75918 -2.11994 47.79059 -11.45521 52.67283 114.49071 81.64243 -11.82717 -1.83186 29.34052 85.60894 14.89837 47.9232 -95.26096 5.20821 -2.54942 41.13972 13.6806 -45.97165 -27.84399 2.50296 32.88425 12.88325 -5.94087 29.97194 -37.08736 0.4846 -10.28502 7.47119 6.54424
-3.92402 -0.79996 0.83933 993.54245 -26.26942 4.64393 38.40353 4.18719 5.85189 -7.81537 24.08965 -2.11994 47.07048 -11.65068 53.12537 114.70136 81.6228 -11.40014 -1.55367 46.65371 80.92558 -0.34935 51.26746 -96.48411 6.63286 -2.76112 40.66443 13.69161 -46.62918 -28.89823 -1.87525 33.055 12.97721 -6.37838 30.5572 -37.08789 0.09363 -11.47695 6.52051 6.16726
-3.93148 -0.80065 0.86214 994.85317 -26.25277 4.41774 39.16852 4.05708 5.15381 -7.86449 24.09062 -2.11994 48.10493 -12.4732 53.13969 114.66053 81.52489 -11.27735 -1.62126 49.37765 80.51906 -2.57326 51.10496 -96.78764 6.87991 -2.80007 40.41216 13.69497 -46.74624 -30.16604 -4.1232 33.14097 13.01921 -5.70194 30.91362 -37.09471 -1.90168 -13.04857 5.58974 5.56432
-3.93871 -0.80015 0.88558 996.26521 -26.24841 4.10605 40.03652 3.89614 4.24837 -7.9014 23.96059 -2.11994 49.78831 -13.52514 53.0017 114.51826 81.39994 -11.27776 -1.80754 47.44724 81.52878 -0.64235 49.67244 -96.74487 6.73318 -2.78978 40.21872 13.69329 -46.67669 -31.53448 -5.75408 33.10366 13.0003 -4.58436 31.17969 -37.10352 -4.50631 -14.78291 4.67754 4.89441
-3.94603 -0.80021 0.90863 997.63702 -26.23365 3.83136 40.83773 3.7483 3.44666 -7.93589 23.88406 -2.11994 51.17058 -14.4697 52.93073 114.41981 81.29001 -11.24038 -1.93853 48.13226 81.79427 -1.05767 48.78178 -96.82496 6.76965 -2.81635 40.00155 13.69363 -46.69685 -32.86158 -7.69942 33.11045 13.00375 -3.62695 31.47999 -37.11127 -6.86055 -16.45725 3.76439 4.26725
-3.95348 -0.80014 0.93215 998.97921 -26.2442 3.56164 41.73128 3.60374 2.59954 -8.00665 23.83176 -2.11994 52.5962 -15.43346 52.87306 114.32427 81.16785 -11.12517 -2.07281 46.95465 82.43551 0.24826 48.0503 -97.05352 6.80815 -2.78599 39.75938 13.69384 -46.70072 -34.18511 -9.59129 33.11792 13.00709 -2.83958 31.80852 -37.12003 -9.10768 -18.09461 2.82041 3.59183
-3.96056 -0.80009 0.95482 1000.40847 -26.20076 3.26351 42.45085 3.44625 1.80193 -7.99876 23.6967 -2.11994 54.07281 -16.40649 52.75156 114.20245 81.06517 -11.20067 -2.22815 48.40066 82.65443 -0.91607 46.69322 -96.89599 6.74213 -2.85894 39.58487 13.69359 -46.69235 -35.53244 -11.40947 33.11271 13.00437 -1.5936 32.05691 -37.12672 -11.71781 -19.83023 1.94654 2.99943
-3.96684 -0.80027 0.97515 1002.06115 -26.03406 2.89478 42.70265 3.24794 1.16695 -7.7665 23.38338 -2.11994 55.60828 -17.38393 52.47188 114.01655 81.02076 -11.78458 -2.42739 58.90384 81.29871 -10.48921 43.7791 -95.67567 6.47199 -3.25384 39.62127 13.69372 -46.69756 -36.94038 -13.2207 33.11595 13.00594 0.81574 32.10641 -37.12874 -15.21429 -21.90572 1.24034 2.65586
